<svg width="140" height="24" viewBox="0 0 140 24" fill="none" xmlns="http://www.w3.org/2000/svg">
<g clip-path="url(#clip0_19144_59529)">
<path fill-rule="evenodd" clip-rule="evenodd" d="M1.44911 13.3246H21.9431C22.1338 13.3248 22.3226 13.2873 22.4987 13.2144C22.6749 13.1414 22.8349 13.0344 22.9695 12.8994C23.1042 12.7645 23.2108 12.6042 23.2834 12.4279C23.3559 12.2516 23.3929 12.0627 23.3923 11.8721C23.3884 9.21455 22.4944 6.63493 20.8528 4.54506C19.2112 2.45518 16.9168 0.975545 14.3358 0.342381C11.7548 -0.290783 9.03609 -0.0409669 6.61371 1.05195C4.19133 2.14486 2.20496 4.01785 0.971715 6.37188C0.792122 6.71221 0.75508 7.10994 0.868737 7.47758C0.982394 7.84522 1.23744 8.15265 1.57777 8.33224C1.91809 8.51184 2.31582 8.54888 2.68346 8.43522C3.0511 8.32156 3.35853 8.06652 3.53812 7.72619C4.4122 6.05628 5.78897 4.7033 7.47386 3.85847C9.15875 3.01364 11.0665 2.71969 12.9276 3.01817C14.7886 3.31665 16.5088 4.19246 17.845 5.52182C19.1812 6.85117 20.0658 8.56684 20.3738 10.4263H1.44911C1.06478 10.4263 0.696194 10.579 0.424434 10.8508C0.152673 11.1225 0 11.4911 0 11.8754C0 12.2598 0.152673 12.6284 0.424434 12.9001C0.696194 13.1719 1.06478 13.3246 1.44911 13.3246ZM5.3396 22.1659C7.24166 23.3698 9.44675 24.0084 11.6978 24.0072H11.6928C11.7701 24.0072 11.8502 24.0047 11.9318 24.0022C12.0164 23.9997 12.1026 23.997 12.1888 23.997C14.359 23.9114 16.4641 23.2317 18.2746 22.032C20.0851 20.8323 21.5315 19.1586 22.4561 17.1933C22.5396 17.021 22.588 16.8338 22.5987 16.6426C22.6094 16.4514 22.5821 16.26 22.5183 16.0794C22.4546 15.8989 22.3557 15.7327 22.2274 15.5906C22.099 15.4485 21.9438 15.3332 21.7706 15.2514C21.5975 15.1697 21.4098 15.123 21.2186 15.1142C21.0273 15.1054 20.8361 15.1346 20.6562 15.2001C20.4763 15.2656 20.3111 15.3661 20.1702 15.4958C20.0294 15.6255 19.9156 15.7819 19.8355 15.9558C19.1076 17.496 17.9573 18.7979 16.5185 19.7099C15.0796 20.6219 13.4114 21.1067 11.7078 21.1078C10.0043 21.1088 8.33545 20.6262 6.89547 19.7159C5.45549 18.8057 4.30357 17.5053 3.5737 15.966C3.40623 15.6235 3.11054 15.3608 2.75072 15.2349C2.3909 15.1089 1.99594 15.1298 1.65142 15.293C1.30691 15.4563 1.0406 15.7487 0.910202 16.1069C0.779808 16.4652 0.795836 16.8604 0.954812 17.2069C1.91686 19.242 3.43754 20.9619 5.3396 22.1659Z" fill="#FF8B49"/>
<path fill-rule="evenodd" clip-rule="evenodd" d="M108.455 18.1209C109.906 19.5196 111.843 20.3012 113.858 20.3013V20.303C114.588 20.3046 115.313 20.1903 116.006 19.9644C117.811 19.3702 118.993 18.0701 119.25 16.3772C119.741 13.1438 116.48 11.7421 115.089 11.1445C114.918 11.0717 114.757 11.0023 114.666 10.9566C114.461 10.8533 114.212 10.7535 113.921 10.6367C112.929 10.2388 111.082 9.49734 111.101 8.48161C111.114 7.79769 111.503 7.29659 112.258 6.99187C113.486 6.49586 115.431 6.68885 116.785 8.04316C117.032 8.28852 117.366 8.42575 117.715 8.42463C118.063 8.42352 118.396 8.28417 118.641 8.03723C118.887 7.79029 119.024 7.45599 119.023 7.10788C119.022 6.75977 118.882 6.42635 118.636 6.18098C116.694 4.25448 113.677 3.58579 111.277 4.55582C109.56 5.2499 108.514 6.69562 108.48 8.42575C108.426 11.2512 111.478 12.4768 112.946 13.0659C113.171 13.1557 113.384 13.242 113.491 13.2962C113.618 13.362 113.762 13.4236 113.923 13.4927L113.923 13.4927L113.924 13.4928C113.966 13.5108 114.009 13.5292 114.053 13.5484C116.37 14.5438 116.77 15.2396 116.658 15.9777C116.524 16.8529 115.783 17.2711 115.185 17.4691C113.818 17.9194 111.7 17.6486 110.305 16.2587C110.058 16.0133 109.724 15.8761 109.375 15.8772C109.027 15.8783 108.694 16.0177 108.449 16.2646C108.203 16.5116 108.066 16.8459 108.067 17.194C108.068 17.5421 108.208 17.8755 108.455 18.1209ZM33.2685 17.393H40.8645C41.212 17.393 41.5453 17.531 41.791 17.7768C42.0367 18.0225 42.1748 18.3558 42.1748 18.7033C42.1748 19.0508 42.0367 19.3841 41.791 19.6298C41.5453 19.8755 41.212 20.0136 40.8645 20.0136H31.9515C31.7793 20.0138 31.6088 19.9801 31.4498 19.9143C31.2907 19.8485 31.1462 19.752 31.0245 19.6303C30.9027 19.5086 30.8062 19.3641 30.7405 19.205C30.6747 19.0459 30.641 18.8754 30.6412 18.7033V5.619C30.6412 5.44636 30.6753 5.27542 30.7416 5.116C30.8078 4.95659 30.905 4.81184 31.0273 4.69008C31.1497 4.56832 31.295 4.47195 31.4547 4.4065C31.6145 4.34105 31.7856 4.30782 31.9582 4.30871H40.3194C40.659 4.32091 40.9806 4.46439 41.2165 4.70895C41.4524 4.9535 41.5842 5.28005 41.5842 5.61985C41.5842 5.95965 41.4524 6.2862 41.2165 6.53075C40.9806 6.7753 40.659 6.91878 40.3194 6.93098H33.2685V10.5656H38.6637C39.0033 10.5778 39.3249 10.7213 39.5608 10.9658C39.7968 11.2104 39.9286 11.5369 39.9286 11.8767C39.9286 12.2165 39.7968 12.5431 39.5608 12.7876C39.3249 13.0322 39.0033 13.1757 38.6637 13.1879H33.2685V17.393ZM125.548 17.393H133.149C133.496 17.393 133.829 17.531 134.075 17.7768C134.321 18.0225 134.459 18.3558 134.459 18.7033C134.459 19.0508 134.321 19.3841 134.075 19.6298C133.829 19.8755 133.496 20.0136 133.149 20.0136H124.236C124.063 20.0138 123.893 19.98 123.734 19.9143C123.575 19.8485 123.43 19.752 123.309 19.6303C123.187 19.5086 123.09 19.364 123.025 19.205C122.959 19.0459 122.925 18.8754 122.925 18.7033V5.61898C122.925 5.44691 122.959 5.27653 123.025 5.11756C123.091 4.95858 123.187 4.81414 123.309 4.69247C123.431 4.5708 123.575 4.47428 123.734 4.40843C123.893 4.34258 124.064 4.30869 124.236 4.30869H132.597C132.936 4.3209 133.258 4.46438 133.494 4.70893C133.73 4.95348 133.862 5.28003 133.862 5.61983C133.862 5.95963 133.73 6.28618 133.494 6.53073C133.258 6.77528 132.936 6.91876 132.597 6.93097H125.548V10.5656H130.941C131.281 10.5778 131.602 10.7213 131.838 10.9658C132.074 11.2104 132.206 11.5369 132.206 11.8767C132.206 12.2165 132.074 12.5431 131.838 12.7876C131.602 13.0322 131.281 13.1757 130.941 13.1879H125.548V17.393ZM106.007 18.1932L104.483 14.6009V14.5857L100.486 5.10552L100.466 5.06489L100.458 5.04883C100.451 5.03163 100.443 5.01391 100.434 4.99717L100.401 4.943C100.391 4.92438 100.379 4.90576 100.368 4.88714C100.356 4.86895 100.343 4.85143 100.329 4.83466L100.291 4.78387C100.282 4.77245 100.272 4.76179 100.262 4.75087L100.247 4.73478L100.205 4.68907L100.159 4.64675L100.109 4.60273C100.093 4.58938 100.077 4.57695 100.059 4.56549C100.043 4.55157 100.025 4.53857 100.007 4.52655L99.9511 4.49269L99.8969 4.46053L99.8309 4.42837L99.7869 4.40805H99.7785L99.709 4.38266L99.6566 4.36404L99.599 4.3488C99.5085 4.32672 99.4161 4.31368 99.3231 4.30986H99.2503C99.149 4.31147 99.0484 4.32569 98.9506 4.35219L98.9015 4.36404C98.8882 4.36404 98.8756 4.36984 98.8628 4.37575C98.8561 4.37887 98.8493 4.38201 98.8423 4.38435L98.778 4.40805L98.7306 4.43006L98.6696 4.46053L98.6104 4.49439L98.5596 4.52655C98.5397 4.53912 98.5205 4.55268 98.502 4.56718C98.4969 4.57113 98.4919 4.57489 98.4868 4.57864C98.4766 4.58617 98.4665 4.5937 98.4563 4.60273C98.4376 4.61656 98.4201 4.63185 98.4038 4.64844C98.3985 4.65379 98.3929 4.65887 98.3872 4.664L98.3872 4.66405L98.3871 4.66407C98.3785 4.67191 98.3697 4.67987 98.3615 4.68907C98.3481 4.70413 98.3314 4.72085 98.3163 4.73595L98.3161 4.73617L98.316 4.73625L98.3158 4.73647C98.3006 4.75171 98.287 4.76694 98.2735 4.78387L98.2345 4.83466C98.2302 4.84085 98.2256 4.84705 98.221 4.85332C98.213 4.8642 98.2048 4.87533 98.1973 4.88714L98.1617 4.94469L98.1313 4.99717C98.1222 5.01398 98.1142 5.03177 98.1063 5.04904L98.0991 5.06489L98.0788 5.10552L94.0819 14.5857V14.6009L92.5668 18.1932C92.4316 18.5136 92.4291 18.8745 92.5599 19.1967C92.6907 19.5189 92.944 19.776 93.2642 19.9115C93.4251 19.9788 93.5977 20.0139 93.7721 20.0147C94.0302 20.0147 94.2825 19.9385 94.4975 19.7958C94.7125 19.6531 94.8806 19.4501 94.9808 19.2123L96.1658 16.414H102.429L103.615 19.2123C103.715 19.4501 103.883 19.6531 104.098 19.7958C104.313 19.9385 104.565 20.0147 104.823 20.0147C104.998 20.0139 105.17 19.9788 105.331 19.9115C105.651 19.776 105.905 19.5189 106.035 19.1967C106.166 18.8745 106.164 18.5136 106.029 18.1932H106.007ZM97.2764 13.7917L99.3078 8.99238L101.339 13.7917H97.2764ZM56.6897 20.0136H57.0282H57.0367C57.2089 20.0138 57.3795 19.9801 57.5386 19.9143C57.6978 19.8486 57.8425 19.7521 57.9643 19.6304C58.0862 19.5087 58.1828 19.3642 58.2488 19.2051C58.3147 19.046 58.3487 18.8755 58.3487 18.7033V5.619C58.3365 5.27942 58.193 4.95782 57.9484 4.7219C57.7039 4.48597 57.3773 4.35414 57.0375 4.35414C56.6977 4.35414 56.3712 4.48597 56.1266 4.7219C55.8821 4.95782 55.7386 5.27942 55.7264 5.619V15.3243L47.5261 4.81657C47.4037 4.65879 47.2469 4.53102 47.0676 4.44301C46.8884 4.355 46.6914 4.30906 46.4917 4.30871H46.2158C46.0431 4.30782 45.8719 4.34104 45.712 4.40647C45.5522 4.4719 45.4068 4.56824 45.2843 4.68998C45.1618 4.81172 45.0645 4.95645 44.998 5.11588C44.9316 5.2753 44.8973 5.44628 44.897 5.619V18.7033C44.9092 19.0429 45.0527 19.3645 45.2973 19.6004C45.5418 19.8363 45.8684 19.9682 46.2082 19.9682C46.548 19.9682 46.8745 19.8363 47.1191 19.6004C47.3636 19.3645 47.5071 19.0429 47.5193 18.7033V9.07587L55.6553 19.5057C55.7774 19.6638 55.9342 19.7918 56.1135 19.8798C56.2928 19.9678 56.4899 20.0136 56.6897 20.0136ZM88.4312 4.30869C88.0838 4.30914 87.7508 4.44733 87.5051 4.69296C87.2595 4.93859 87.1213 5.27161 87.1209 5.61898V10.5656H79.6468V5.61898C79.6346 5.2794 79.4911 4.9578 79.2466 4.72188C79.002 4.48596 78.6755 4.35412 78.3357 4.35412C77.9959 4.35412 77.6693 4.48596 77.4248 4.72188C77.1802 4.9578 77.0367 5.2794 77.0245 5.61898V11.8742V18.7016C77.0182 18.8777 77.0474 19.0533 77.1105 19.2179C77.1735 19.3825 77.2691 19.5327 77.3915 19.6596C77.5138 19.7865 77.6605 19.8873 77.8227 19.9563C77.985 20.0252 78.1594 20.0607 78.3357 20.0607C78.5119 20.0607 78.6864 20.0252 78.8486 19.9563C79.0108 19.8873 79.1575 19.7865 79.2799 19.6596C79.4023 19.5327 79.4978 19.3825 79.5609 19.2179C79.6239 19.0533 79.6531 18.8777 79.6468 18.7016V13.1879H87.1209V18.7033C87.1146 18.8794 87.1438 19.055 87.2068 19.2196C87.2699 19.3842 87.3654 19.5344 87.4878 19.6613C87.6102 19.7881 87.7569 19.889 87.9191 19.958C88.0813 20.0269 88.2558 20.0624 88.432 20.0624C88.6083 20.0624 88.7827 20.0269 88.945 19.958C89.1072 19.889 89.2539 19.7881 89.3762 19.6613C89.4986 19.5344 89.5942 19.3842 89.6572 19.2196C89.7203 19.055 89.7495 18.8794 89.7432 18.7033V5.61898C89.7427 5.27132 89.6043 4.93804 89.3583 4.69236C89.1123 4.44669 88.7788 4.30869 88.4312 4.30869ZM63.7743 20.0152C63.6021 20.0152 63.4316 19.9812 63.2725 19.9153C63.1134 19.8493 62.9689 19.7527 62.8472 19.6308C62.7255 19.509 62.629 19.3643 62.5633 19.2052C62.4975 19.046 62.4638 18.8754 62.464 18.7032V5.61892C62.464 5.27125 62.602 4.9378 62.8477 4.6918C63.0934 4.44581 63.4267 4.30738 63.7743 4.30693H69.156C72.0948 4.30693 74.2346 6.36717 74.2346 9.20614C74.2346 12.0451 72.1016 14.1053 69.156 14.1053H65.0846V18.7032C65.0848 18.8754 65.0511 19.046 64.9854 19.2052C64.9196 19.3643 64.8231 19.509 64.7014 19.6308C64.5797 19.7527 64.4352 19.8493 64.2761 19.9153C64.1171 19.9812 63.9465 20.0152 63.7743 20.0152ZM65.0846 11.4848H69.156C70.644 11.4848 71.6073 10.5909 71.6073 9.20614C71.6073 7.82136 70.644 6.92921 69.156 6.92921H65.0846V11.4848ZM138.415 19.5091C138.545 19.3142 138.615 19.0851 138.615 18.8507C138.615 18.5365 138.49 18.235 138.268 18.0128C138.046 17.7906 137.744 17.6657 137.43 17.6657C137.195 17.6657 136.966 17.7352 136.771 17.8654C136.577 17.9956 136.425 18.1807 136.335 18.3973C136.245 18.6138 136.222 18.8521 136.268 19.0819C136.313 19.3118 136.426 19.523 136.592 19.6887C136.758 19.8544 136.969 19.9673 137.199 20.013C137.429 20.0587 137.667 20.0353 137.883 19.9456C138.1 19.8559 138.285 19.704 138.415 19.5091ZM138.244 18.3089C138.356 18.4679 138.418 18.6564 138.424 18.8507C138.427 18.9827 138.404 19.114 138.356 19.237C138.308 19.36 138.236 19.4721 138.144 19.5668C138.052 19.6615 137.942 19.7368 137.821 19.7882C137.699 19.8397 137.569 19.8663 137.437 19.8665C137.242 19.8667 137.052 19.8097 136.89 19.7024C136.728 19.5951 136.601 19.4424 136.525 19.2633C136.449 19.0843 136.428 18.8869 136.464 18.6957C136.499 18.5046 136.591 18.3283 136.726 18.1889C136.862 18.0494 137.035 17.953 137.225 17.9117C137.415 17.8704 137.613 17.8861 137.794 17.9567C137.976 18.0274 138.132 18.1499 138.244 18.3089ZM136.998 19.5516H137.188L137.191 18.9303H137.462L137.84 19.5516H138.055L137.665 18.9303C137.758 18.9169 137.843 18.8695 137.902 18.7972C137.962 18.7249 137.993 18.633 137.989 18.5393C137.989 18.2887 137.848 18.1516 137.535 18.1516H136.998V19.5516ZM137.429 18.7712L137.408 18.7712H137.188V18.3107H137.492C137.64 18.3107 137.797 18.3395 137.797 18.5359C137.797 18.772 137.608 18.7716 137.429 18.7712Z" fill="black"/>
</g>
<defs>
<clipPath id="clip0_19144_59529">
<rect width="139.2" height="24" fill="white"/>
</clipPath>
</defs>
</svg>
